<svg width="256" height="270" viewBox="0 0 256 270" fill="none" xmlns="http://www.w3.org/2000/svg">
<path fill-rule="evenodd" clip-rule="evenodd" d="M253 82C253 101.384 246.274 119.196 235.029 133.232C248.068 147.751 256 166.949 256 188C256 233.287 219.287 270 174 270C157.761 270 142.624 265.28 129.888 257.136C121.182 260.284 111.791 262 102 262C58.6995 262 23.2378 228.438 20.2096 185.909C7.62418 171.495 0 152.638 0 132C0 109.69 8.90934 89.4617 23.3642 74.6777C33.4108 40.7514 64.8149 16 102 16C108.115 16 114.074 16.6694 119.807 17.9389C133.837 6.71302 151.635 0 171 0C216.287 0 253 36.7127 253 82ZM41.5544 151.656L41.9479 171.571L58.9978 161.273L41.5544 151.656ZM98.4706 151.758L81.2127 161.703L98.4548 171.676L98.4706 151.758ZM87.5918 203.58C88.5215 201.335 89 198.929 89 196.5H52C52 198.929 52.4786 201.335 53.4083 203.58C54.338 205.824 55.7007 207.864 57.4186 209.581C59.1364 211.299 61.1759 212.662 63.4204 213.592C65.6649 214.521 68.0706 215 70.5 215C72.9295 215 75.3352 214.521 77.5797 213.592C79.8242 212.662 81.8636 211.299 83.5815 209.581C85.2994 207.864 86.6621 205.824 87.5918 203.58Z" fill="#5855E9"/>
</svg>
